# xmcd CD database file
#
# Track frame offsets:
#	150
#	11993
#	26940
#	41591
#	56888
#	65395
#	79120
#	92504
#	104136
#	120158
#	131035
#	142172
#	152538
#	162368
#	174301
#	187580
#	196168
#	207883
#	220808
#	229910
#	238970
#	248476
#	259640
#	271654
#	280776
#	298543
#	313618
#
# Disc length: 4360 seconds
#
# Revision: 2
# Processed by: cddbd v1.5.2PL0 Copyright (c) Steve Scherf et al.
# Submitted via: CDex 1.51
#
DISCID=8111061b
DTITLE=ost. - 80let trampingu (2)
DYEAR=1998
DGENRE=Country
TTITLE0=Wabi Danek a Rosa - Rosa na kolejich
TTITLE1=Miki Ryvola,Nezmari a pratele - Bedna od whisky
TTITLE2=Brontosauri - Dlouhan Franky
TTITLE3=Spojene trampske osady Praha - Anglicka sobota
TTITLE4=KTO - Posazavskej Dan
TTITLE5=Rohaci - Toulavej
TTITLE6=Kapitan Kid a KTO - Krinolina
TTITLE7=Spojene trampske osady Brno - Mexicka svatba
TTITLE8=Spojene trampske osady Praha - Satecek
TTITLE9=Camp Boys - Bessie
TTITLE10=Jan Vycital a Greenhorns - Kabalero
TTITLE11=Wabi Ryvola a Spojene trampske osady Praha - Zpoved
TTITLE12=Mustangove - Lokalka
TTITLE13=Wabi Danek - Hudsonsky sify
TTITLE14=Miki Ryvola a pratele - Tunel jmenem cas
TTITLE15=Sestry Havelkovy - Az prijde ta chvile
TTITLE16=Pacifik - Blativa cesta
TTITLE17=Westmeni - Pisen stareho pistolnika
TTITLE18=Spojene trampske osady Brno - Vandrak
TTITLE19=Brontosauri - Tramp
TTITLE20=KTO - Na osade hrali
TTITLE21=Nezmari - Sedmnact dnu
TTITLE22=Settlers Club - Reka huci
TTITLE23=Spojene trampske osady Praha - Kapkami si dest
TTITLE24=Zalman a spol. - Kourovej signal
TTITLE25=Hlucha ucha - Jizni eskadrona
TTITLE26=Wabi Ryvola a pratele - Odjizdim
EXTD=YEAR: 1998
EXTT0=
EXTT1=
EXTT2=
EXTT3=
EXTT4=
EXTT5=
EXTT6=
EXTT7=
EXTT8=
EXTT9=
EXTT10=
EXTT11=
EXTT12=
EXTT13=
EXTT14=
EXTT15=
EXTT16=
EXTT17=
EXTT18=
EXTT19=
EXTT20=
EXTT21=
EXTT22=
EXTT23=
EXTT24=
EXTT25=
EXTT26=
PLAYORDER=
